<?xml version="1.0" encoding="utf-8"?>
<!-- Generator: Adobe Illustrator 23.0.1, SVG Export Plug-In . SVG Version: 6.00 Build 0)  -->
<svg version="1.0" id="Capa_2" xmlns="http://www.w3.org/2000/svg" xmlns:xlink="http://www.w3.org/1999/xlink" x="0px" y="0px"
	 viewBox="0 0 184 243.55" style="enable-background:new 0 0 184 243.55;" xml:space="preserve">
<path style="fill:#FFFFFF;" d="M164.67,155c-5.49-4.14-10.67-8.04-10.67-15.28c0-7.19,6.65-12.83,13.68-18.79
	c8.02-6.8,16.32-13.84,16.32-24.21c0-11.59-7.93-15.99-14.93-19.87c-5.63-3.12-10.96-6.08-12.09-12.31
	c-0.7-3.87,0.53-8.43,1.84-13.25c2.18-8.05,4.66-17.18-3.2-23.36c-9.12-7.17-18.55-1.95-25.43,1.85c-4.09,2.26-7.62,4.21-9.7,3.06
	c-2.7-1.5-5.82-5.88-9.44-10.96C103,10.6,93-3.44,78.72,0.76C67.38,4.1,65.18,18.51,63.42,30.09c-0.98,6.42-1.9,12.48-4.15,14.96
	c-3.65,4.01-8.65,3.84-14.45,3.63c-8.88-0.31-19.93-0.69-28.69,15.57c-5.92,11-1.7,21.29,2.02,30.37
	c2.61,6.36,5.07,12.37,3.89,17.89c-1.33,6.21-5.97,8.57-10.88,11.06C5.66,126.36,0,129.24,0,137.72c0,5.93,2.93,9.5,6.03,13.28
	c3.43,4.18,6.97,8.5,6.97,16.72c0,9.48-2.16,15.78-3.89,20.83c-2.05,5.96-3.66,10.67,0.04,16.69c4.98,8.09,13.6,6.14,21.21,4.41
	c5.46-1.24,10.63-2.41,14.09-0.1c4.85,3.23,5.57,9.13,6.34,15.39c0.9,7.3,1.83,14.85,9.87,17.72c1.73,0.62,3.28,0.89,4.68,0.89
	c4.62,0,7.71-2.92,10.94-5.97c4.4-4.15,9.39-8.86,19.71-8.86c9.32,0,14.14,3.45,18.39,6.5c5.23,3.74,9.75,6.98,20.01,2.42
	c11.08-4.92,9.37-12.65,7.71-20.13c-1.21-5.44-2.46-11.07,0.74-16.26c3.38-5.49,9.34-8.45,15.1-11.32
	c7.5-3.73,15.26-7.59,17.03-17.02C176.65,164.03,170.56,159.44,164.67,155z M173.02,172.54c-1.59,8.46-8.57,11.93-15.96,15.6
	c-6.01,2.99-12.24,6.08-15.91,12.06c-3.62,5.88-2.22,12.18-0.99,17.74c1.69,7.6,3.02,13.61-6.57,17.87
	c-9.21,4.1-12.91,1.45-18.04-2.22c-4.28-3.06-9.6-6.87-19.56-6.87c-11.12,0-16.65,5.22-21.09,9.41c-4.24,4-7.3,6.89-13.58,4.65
	c-6.88-2.46-7.7-9.08-8.56-16.08c-0.79-6.42-1.61-13.07-7.22-16.81c-1.81-1.21-3.94-1.64-6.22-1.64c-2.98,0-6.23,0.74-9.42,1.46
	c-7.63,1.73-14.83,3.37-19.06-3.51c-3.21-5.22-1.88-9.11,0.15-14.99c1.78-5.2,4-11.66,4-21.48c0-8.93-3.94-13.74-7.43-17.99
	C4.58,146.08,2,142.93,2,137.72c0-7.25,4.66-9.62,10.05-12.36c4.88-2.48,10.4-5.29,11.93-12.43c1.31-6.13-1.26-12.41-3.99-19.07
	c-3.73-9.09-7.58-18.5-2.11-28.67c8.17-15.17,18.09-14.82,26.86-14.52c6.03,0.21,11.73,0.41,16-4.29c2.66-2.93,3.58-8.99,4.65-16
	C67.16,18.8,69.16,5.66,79.28,2.68c12.91-3.8,22.46,9.6,30.14,20.37c3.76,5.27,7.01,9.83,10.1,11.54c3.05,1.69,7.03-0.51,11.64-3.06
	c7.1-3.93,15.15-8.38,23.23-2.03c6.82,5.36,4.73,13.08,2.51,21.26c-1.31,4.83-2.66,9.82-1.88,14.13c1.3,7.17,7.29,10.49,13.08,13.7
	c7.15,3.96,13.9,7.71,13.9,18.12c0,9.44-7.94,16.17-15.61,22.68c-7.4,6.27-14.39,12.2-14.39,20.32c0,8.23,5.83,12.63,11.46,16.88
	C169.12,160.86,174.45,164.88,173.02,172.54z"/>
</svg>
