<?xml version="1.0" encoding="utf-8"?>
<!-- Generator: Adobe Illustrator 23.0.1, SVG Export Plug-In . SVG Version: 6.00 Build 0)  -->
<svg version="1.0" id="Capa_2" xmlns="http://www.w3.org/2000/svg" xmlns:xlink="http://www.w3.org/1999/xlink" x="0px" y="0px"
	 viewBox="0 0 1260 540" style="enable-background:new 0 0 1260 540;" xml:space="preserve">
<g>
	<path style="fill:#FFFFFF;" d="M741.66,215.35c-0.29,0-0.58-0.13-0.78-0.38c-0.35-0.43-0.28-1.06,0.16-1.41
		c8.59-6.87,34.24-6.87,45.19-6.87c0.55,0,1,0.45,1,1s-0.45,1-1,1c-9.82,0-35.9,0-43.94,6.43
		C742.1,215.28,741.88,215.35,741.66,215.35z"/>
</g>
<g>
	<path style="fill:#FFFFFF;" d="M807.51,245.93c-14.92,0-36.61-2.03-40.45-7.37c-0.74-1.03-0.87-2.18-0.37-3.32
		c1.35-3.1,3.3-4.94,4.5-6c-0.73-0.07-1.73-0.13-2.85-0.2l-0.81-0.05c-23.35-1.51-26.72-4.24-27.04-6.46
		c-0.28-1.93,1.82-3.62,6.81-5.45c0.52-0.19,1.09,0.07,1.28,0.59s-0.07,1.09-0.59,1.28c-5.63,2.07-5.52,3.28-5.52,3.29
		c0.05,0.32,1.15,3.2,25.19,4.75l0.8,0.05c4.39,0.28,5.18,0.33,5.51,1.31c0.29,0.85-0.37,1.42-1.2,2.14
		c-1.12,0.97-2.99,2.59-4.27,5.54c-0.21,0.49-0.17,0.9,0.16,1.36c3.59,5,32.4,7.53,47.74,6.23c0.55-0.06,1.03,0.36,1.08,0.91
		s-0.36,1.03-0.91,1.08C814.16,245.82,811.02,245.93,807.51,245.93z"/>
</g>
<g>
	<path style="fill:#FFFFFF;" d="M935.87,247.85c-0.06,0-0.12,0-0.18-0.02c-3.74-0.67-12.47-1.01-21.7-1.37
		c-26.53-1.03-37.78-1.99-38.8-5.24c-0.2-0.63-0.15-1.59,1.22-2.62c2.06-1.56,2.02-2.33,1.96-2.53c-0.46-1.51-5.46-2.54-14.85-3.04
		l-1-0.05c-3.5-0.2-4.92,0.54-5.04,0.9c0,0.01-0.3,1.15,4.1,3.9c2.09,1.3,2.17,2.63,1.87,3.51c-1.71,5.05-23.41,7.31-33.76,6.32
		c-0.55-0.05-0.95-0.54-0.9-1.09c0.05-0.55,0.54-0.98,1.09-0.9c12.55,1.19,30.7-2.1,31.67-4.97c0.11-0.32-0.47-0.81-1.04-1.17
		c-3.94-2.46-5.51-4.43-4.95-6.21c0.73-2.3,4.74-2.43,7.06-2.29l0.99,0.05c7.87,0.42,15.63,1.11,16.65,4.45
		c0.67,2.19-1.84,4.08-2.66,4.71c-0.32,0.24-0.44,0.4-0.49,0.48c1.62,2.42,23.71,3.28,36.94,3.8c9.71,0.38,18.1,0.7,21.98,1.4
		c0.54,0.1,0.91,0.62,0.81,1.16C936.77,247.51,936.35,247.85,935.87,247.85z"/>
</g>
<g>
	<path style="fill:#FFFFFF;" d="M1029.98,264.57c-0.21,0-0.41-0.06-0.59-0.19l-0.27-0.2c-4.67-3.43-6.81-5-25.79-6.93
		c-32.03-3.26-32.59-6.71-32.81-8.01c-0.31-1.87,2.07-2.95,2.85-3.3c0.51-0.23,1.1,0,1.32,0.5c0.23,0.5,0.01,1.1-0.5,1.32
		c-1.57,0.71-1.7,1.17-1.7,1.17c0.03,0.11,1.07,3.28,31.04,6.32c19.53,1.99,21.8,3.65,26.77,7.31l0.27,0.2
		c0.45,0.33,0.54,0.95,0.21,1.4C1030.59,264.43,1030.29,264.57,1029.98,264.57z"/>
</g>
</svg>
