<?xml version="1.0" encoding="utf-8"?>
<!-- Generator: Adobe Illustrator 23.0.1, SVG Export Plug-In . SVG Version: 6.00 Build 0)  -->
<svg version="1.0" id="Capa_2" xmlns="http://www.w3.org/2000/svg" xmlns:xlink="http://www.w3.org/1999/xlink" x="0px" y="0px"
	 viewBox="0 0 1260 540" style="enable-background:new 0 0 1260 540;" xml:space="preserve">
<g>
	<path style="fill:#FFFFFF;" d="M620.38,390c-0.13,0-0.25,0-0.38,0c-0.55,0-1-0.45-1-1s0.45-1,1-1c0.12-0.01,0.25,0,0.38,0
		c15.37,0,41.63-2.2,65.54-5.51c33.08-4.57,42.25-8.51,42.48-9.96l0,0c0,0-0.11-0.26-0.86-0.65c-5.14-2.67-7.09-4.53-6.74-6.41
		c0.56-2.99,6.68-3.78,20.47-5.28c17.17-1.87,40.68-4.43,57.77-14.04c3.88-2.18,3.28-4.26,3.09-4.94
		c-2.26-7.95-29.59-18.19-52.09-17.22c-0.57,0.02-1.02-0.4-1.04-0.96c-0.02-0.55,0.4-1.02,0.96-1.04
		c22.5-0.97,51.33,8.98,54.1,18.67c0.56,1.95,0.31,4.79-4.03,7.23c-17.45,9.8-41.19,12.39-58.53,14.28
		c-8.2,0.89-18.41,2.01-18.73,3.66c-0.01,0.05-0.16,1.22,5.69,4.27c1.9,0.99,2.07,2.12,1.88,2.9c-0.91,3.7-15.86,7.57-44.44,11.5
		C661.99,387.81,635.74,390,620.38,390z"/>
</g>
<g>
	<path style="fill:#FFFFFF;" d="M735.35,319.1c-0.27,0-0.55-0.11-0.75-0.33c-0.37-0.41-0.33-1.04,0.08-1.41
		c0.81-0.73,1.13-1.34,0.94-1.84c-1.45-3.79-24.21-7.72-59.8-7.72c-0.55,0-1-0.45-1-1s0.45-1,1-1c2.38,0,58.27,0.1,61.67,9.01
		c0.35,0.93,0.38,2.38-1.48,4.04C735.83,319.02,735.59,319.1,735.35,319.1z"/>
</g>
</svg>
