<?xml version="1.0" encoding="utf-8"?>
<!-- Generator: Adobe Illustrator 23.0.1, SVG Export Plug-In . SVG Version: 6.00 Build 0)  -->
<svg version="1.0" id="Capa_2" xmlns="http://www.w3.org/2000/svg" xmlns:xlink="http://www.w3.org/1999/xlink" x="0px" y="0px"
	 viewBox="0 0 1260 540" style="enable-background:new 0 0 1260 540;" xml:space="preserve">
<g>
	<path style="fill:#FFFFFF;" d="M983.41,369.58c-2.92-1.12-4.18-3.61-5.41-6.01c-0.8-1.57-1.63-3.2-2.93-4.53
		c-3.75-3.82-16.7-4.88-29.23-5.91c-15.97-1.31-32.49-2.67-37.07-9.54c-2.11-3.17-2.59-6.28-1.41-9.25
		c3.28-8.28,18.9-15.11,52.23-22.86l0.45,1.95c-21.66,5.03-47.02,12.04-50.82,21.65c-0.93,2.35-0.54,4.78,1.21,7.4
		c4.05,6.07,20.8,7.45,35.57,8.66c13.48,1.11,26.22,2.15,30.49,6.5c1.52,1.55,2.42,3.32,3.29,5.03c1.15,2.26,2.14,4.21,4.34,5.05
		L983.41,369.58z"/>
</g>
<g>
	<path style="fill:#FFFFFF;" d="M1027.82,378.5c-1-0.57-6.18-1.22-11.18-1.85c-5.7-0.72-12.17-1.53-17.47-2.69l0.43-1.95
		c5.21,1.14,11.63,1.95,17.29,2.66c6.75,0.85,10.63,1.37,11.92,2.1L1027.82,378.5z"/>
</g>
<g>
	<path style="fill:#FFFFFF;" d="M1148.05,425.75c-7.14,0-13.42-1.65-16.22-3.63c-1.67-1.19-1.87-2.33-1.74-3.09
		c0.13-0.78-0.05-1.11-0.2-1.29c-1.05-1.27-5.45-1.32-11.54-1.4c-9.81-0.12-24.64-0.31-44.38-5.16c-7.17-1.76-12.78-3.39-14.33-6.93
		c-0.74-1.68-0.5-3.58,0.73-5.82c0.28-0.51,0.22-0.81,0.14-1.01c-0.7-1.67-5.69-3.11-10.52-4.49c-7.49-2.15-15.99-4.58-18.88-9.84
		l1.75-0.96c2.49,4.52,10.91,6.94,17.68,8.88c6,1.72,10.75,3.08,11.81,5.65c0.25,0.6,0.41,1.57-0.23,2.74
		c-0.91,1.65-1.12,2.98-0.65,4.05c1.18,2.7,6.81,4.28,12.98,5.79c19.52,4.79,34.21,4.98,43.93,5.1c7.36,0.09,11.41,0.14,13.05,2.12
		c0.62,0.75,0.84,1.73,0.63,2.91c-0.04,0.2,0.24,0.63,0.92,1.12c4.69,3.33,21.01,5.58,32.53-0.85l0.97,1.75
		C1160.8,424.56,1154.12,425.75,1148.05,425.75z"/>
</g>
</svg>
